<svg width="758" height="559" viewBox="0 0 758 559" fill="none" xmlns="http://www.w3.org/2000/svg">
<path d="M160.036 253.303C265.015 347.748 133.643 346.92 241.742 390.229C349.842 433.537 353.889 377.384 353.889 301.909C353.889 226.434 312.853 116.91 241.742 116.91C170.632 116.91 55.0561 158.859 160.036 253.303Z" fill="url(#paint0_linear_296_41489)"/>
<path d="M309.585 173.902C294.211 324.405 205.805 287.229 265.977 384.517C326.148 481.806 483.561 398.818 582.63 388.454C681.7 378.09 723.63 287.582 684.497 194.489C658.658 148.315 324.958 23.3983 309.585 173.902Z" fill="#D8D8D8" fill-opacity="0.2"/>
<path d="M240.368 175.067C226.227 323.303 138.694 286.132 198.767 382.376C258.84 478.62 327.111 453.908 412.85 364.816C498.59 275.725 464.942 200.962 402.994 150.145C341.047 99.3275 254.509 26.8315 240.368 175.067Z" fill="#2CB6A9"/>
<path d="M554.519 191.536L552.299 189.457" stroke="#444AC4" stroke-width="1.22213" stroke-linecap="round" stroke-linejoin="round"/>
<path d="M550.306 195.413L548.093 193.363" stroke="#444AC4" stroke-width="1.22213" stroke-linecap="round" stroke-linejoin="round"/>
<path d="M554.34 187.558C554.729 187.195 554.947 186.704 554.947 186.192C554.947 185.68 554.729 185.189 554.34 184.825L550.557 181.319C550.164 180.96 549.634 180.758 549.081 180.758C548.529 180.758 547.999 180.96 547.606 181.319L539.635 188.728C539.438 188.905 539.281 189.118 539.173 189.353C539.066 189.588 539.01 189.84 539.01 190.095C539.01 190.35 539.066 190.603 539.173 190.838C539.281 191.072 539.438 191.285 539.635 191.462L543.418 194.968C543.811 195.328 544.341 195.53 544.893 195.53C545.446 195.53 545.976 195.328 546.368 194.968L554.34 187.558Z" stroke="#444AC4" stroke-width="1.22213" stroke-linecap="round" stroke-linejoin="round"/>
<path d="M543.416 194.968L541.512 193.206L539.633 191.463L538.99 190.867L521.53 206.059L512.732 213.692C512.647 213.765 512.579 213.853 512.531 213.952C512.484 214.05 512.459 214.156 512.457 214.263C512.455 214.371 512.476 214.478 512.52 214.578C512.564 214.677 512.628 214.768 512.71 214.844L515.433 217.369L518.178 219.913C518.261 219.989 518.359 220.049 518.466 220.09C518.574 220.13 518.689 220.15 518.805 220.148C518.921 220.146 519.036 220.123 519.142 220.079C519.248 220.035 519.344 219.972 519.423 219.894L527.664 211.724L544.036 195.542L543.416 194.968Z" stroke="#444AC4" stroke-width="1.22213" stroke-linecap="round" stroke-linejoin="round"/>
<path d="M528.068 212.079L527.664 211.726L519.423 219.895C519.344 219.974 519.248 220.037 519.142 220.08C519.036 220.124 518.921 220.147 518.805 220.149C518.689 220.151 518.574 220.131 518.466 220.091C518.359 220.051 518.261 219.991 518.179 219.915L515.433 217.368L512.71 214.845C512.628 214.769 512.564 214.679 512.52 214.579C512.476 214.479 512.455 214.372 512.457 214.265C512.459 214.157 512.484 214.051 512.531 213.953C512.579 213.855 512.647 213.766 512.732 213.693L521.525 206.055L521.144 205.688C518.337 203.505 514.861 201.829 511.224 204.122C506.25 207.297 507.653 210.56 502.825 213.471C498.756 215.941 492.308 213.868 485.146 220.505C477.484 227.605 483.79 236.381 488.524 240.768L489.357 241.541L490.19 242.336C494.926 246.701 504.395 252.566 512.081 245.444C519.223 238.825 516.983 232.853 519.647 229.083C522.788 224.585 526.334 225.886 529.736 221.276C532.232 217.923 530.4 214.681 528.068 212.079ZM528.068 212.079L527.664 211.726L519.423 219.895C519.344 219.974 519.248 220.037 519.142 220.08C519.036 220.124 518.921 220.147 518.805 220.149C518.689 220.151 518.574 220.131 518.466 220.091C518.359 220.051 518.261 219.991 518.179 219.915L515.433 217.368L512.71 214.845C512.628 214.769 512.564 214.679 512.52 214.579C512.476 214.479 512.455 214.372 512.457 214.265C512.459 214.157 512.484 214.051 512.531 213.953C512.579 213.855 512.647 213.766 512.732 213.693L521.525 206.055L521.144 205.688C518.337 203.505 514.861 201.829 511.224 204.122C506.25 207.297 507.653 210.56 502.825 213.471C498.756 215.941 492.308 213.868 485.146 220.505C477.484 227.605 483.79 236.381 488.524 240.768L489.357 241.541L490.19 242.336C494.926 246.701 504.395 252.566 512.081 245.444C519.223 238.825 516.983 232.853 519.647 229.083C522.788 224.585 526.334 225.886 529.736 221.276C532.232 217.923 530.4 214.681 528.068 212.079Z" stroke="#444AC4" stroke-width="1.22213" stroke-linecap="round" stroke-linejoin="round"/>
<path d="M509.555 222.838C508.724 222.065 507.663 221.537 506.508 221.322C505.353 221.108 504.155 221.216 503.066 221.633C501.977 222.049 501.046 222.756 500.391 223.664C499.736 224.571 499.386 225.639 499.386 226.731C499.386 227.823 499.736 228.89 500.391 229.797C501.046 230.705 501.977 231.412 503.066 231.829C504.155 232.246 505.353 232.353 506.508 232.139C507.663 231.924 508.724 231.397 509.555 230.623C510.668 229.59 511.293 228.19 511.293 226.731C511.293 225.271 510.668 223.871 509.555 222.838Z" fill="#444AC4" stroke="#444AC4" stroke-width="1.22213" stroke-linecap="round" stroke-linejoin="round"/>
<path d="M492.268 232.062L495.622 235.172L498.977 238.303" stroke="#444AC4" stroke-width="1.22213" stroke-linecap="round" stroke-linejoin="round"/>
<path d="M545.558 183.233L542.735 180.617" stroke="#444AC4" stroke-width="1.22213" stroke-linecap="round" stroke-linejoin="round"/>
<path d="M541.358 187.124L538.526 184.5" stroke="#444AC4" stroke-width="1.22213" stroke-linecap="round" stroke-linejoin="round"/>
<path d="M520.09 170.288V168.844" stroke="#444AC4" stroke-width="1.22213" stroke-linecap="round" stroke-linejoin="round"/>
<path d="M523.395 171.557L524.497 170.535" stroke="#444AC4" stroke-width="1.22213" stroke-linecap="round" stroke-linejoin="round"/>
<path d="M524.762 174.621H526.32" stroke="#444AC4" stroke-width="1.22213" stroke-linecap="round" stroke-linejoin="round"/>
<path d="M523.395 177.684L524.497 178.705" stroke="#444AC4" stroke-width="1.22213" stroke-linecap="round" stroke-linejoin="round"/>
<path d="M520.09 178.953V180.396" stroke="#444AC4" stroke-width="1.22213" stroke-linecap="round" stroke-linejoin="round"/>
<path d="M516.781 177.684L515.679 178.705" stroke="#444AC4" stroke-width="1.22213" stroke-linecap="round" stroke-linejoin="round"/>
<path d="M515.414 174.621H513.856" stroke="#444AC4" stroke-width="1.22213" stroke-linecap="round" stroke-linejoin="round"/>
<path d="M516.781 171.557L515.679 170.535" stroke="#444AC4" stroke-width="1.22213" stroke-linecap="round" stroke-linejoin="round"/>
<path d="M482.035 171.721V164.02" stroke="#444AC4" stroke-width="1.22213" stroke-linecap="round" stroke-linejoin="round"/>
<path d="M477.88 167.871H486.192" stroke="#444AC4" stroke-width="1.22213" stroke-linecap="round" stroke-linejoin="round"/>
<path d="M545.165 216.998V213.148" stroke="#444AC4" stroke-width="1.22213" stroke-linecap="round" stroke-linejoin="round"/>
<path d="M543.089 215.074H547.245" stroke="#444AC4" stroke-width="1.22213" stroke-linecap="round" stroke-linejoin="round"/>
<path d="M449.113 148.477C449.114 149.188 448.886 149.884 448.46 150.475C448.033 151.067 447.427 151.528 446.718 151.8C446.008 152.072 445.228 152.143 444.475 152.003C443.722 151.864 443.031 151.521 442.488 151.018C441.946 150.514 441.577 149.873 441.428 149.175C441.279 148.477 441.357 147.754 441.652 147.097C441.947 146.44 442.445 145.879 443.084 145.485C443.723 145.091 444.474 144.881 445.242 144.883C446.269 144.884 447.254 145.264 447.98 145.938C448.706 146.611 449.113 147.525 449.113 148.477Z" fill="#444AC4" stroke="#444AC4" stroke-width="1.22213" stroke-linecap="round" stroke-linejoin="round"/>
<path d="M468.502 144.88C468.502 145.591 468.274 146.286 467.848 146.876C467.422 147.467 466.816 147.928 466.107 148.2C465.399 148.472 464.619 148.542 463.867 148.404C463.115 148.265 462.424 147.923 461.882 147.42C461.339 146.917 460.97 146.277 460.821 145.58C460.671 144.883 460.748 144.16 461.041 143.503C461.335 142.847 461.832 142.286 462.47 141.891C463.108 141.496 463.857 141.285 464.624 141.285C465.134 141.285 465.638 141.378 466.109 141.559C466.579 141.74 467.007 142.004 467.367 142.338C467.727 142.672 468.013 143.068 468.208 143.505C468.402 143.941 468.503 144.408 468.502 144.88Z" fill="#444AC4" stroke="#444AC4" stroke-width="1.22213" stroke-linecap="round" stroke-linejoin="round"/>
<path d="M449.11 148.475V133.606C449.109 133.221 449.233 132.845 449.466 132.526C449.699 132.207 450.029 131.96 450.415 131.818L465.653 126.168C465.968 126.052 466.309 126.009 466.647 126.042C466.984 126.076 467.307 126.186 467.588 126.363C467.869 126.539 468.1 126.777 468.259 127.055C468.418 127.332 468.501 127.642 468.502 127.957V144.881" stroke="#444AC4" stroke-width="1.22213" stroke-linecap="round" stroke-linejoin="round"/>
<path d="M470.947 204.96C470.948 205.34 470.826 205.713 470.598 206.03C470.37 206.346 470.045 206.593 469.666 206.739C469.286 206.885 468.869 206.924 468.465 206.85C468.062 206.776 467.692 206.592 467.401 206.323C467.11 206.054 466.912 205.711 466.832 205.338C466.751 204.964 466.792 204.577 466.949 204.225C467.106 203.873 467.372 203.572 467.714 203.36C468.055 203.149 468.457 203.035 468.868 203.035C469.141 203.035 469.411 203.085 469.663 203.181C469.916 203.278 470.145 203.42 470.338 203.598C470.531 203.777 470.684 203.989 470.789 204.223C470.893 204.456 470.947 204.707 470.947 204.96Z" stroke="#444AC4" stroke-width="1.22213" stroke-linecap="round" stroke-linejoin="round"/>
<path d="M470.948 204.962V196.297L474.064 198.223" stroke="#444AC4" stroke-width="1.22213" stroke-linecap="round" stroke-linejoin="round"/>
<path d="M561.948 209.023C562.791 209.023 563.616 209.255 564.317 209.689C565.018 210.124 565.565 210.741 565.887 211.463C566.21 212.185 566.295 212.98 566.13 213.746C565.966 214.513 565.559 215.217 564.963 215.77C564.367 216.322 563.607 216.699 562.78 216.851C561.952 217.004 561.095 216.925 560.316 216.626C559.537 216.327 558.871 215.82 558.402 215.171C557.933 214.521 557.683 213.757 557.683 212.975C557.683 211.927 558.133 210.922 558.932 210.181C559.732 209.44 560.817 209.023 561.948 209.023Z" fill="#444AC4" stroke="#444AC4" stroke-width="1.22213" stroke-linecap="round" stroke-linejoin="round"/>
<path d="M566.21 212.974V195.191L572.607 199.144" stroke="#444AC4" stroke-width="1.22213" stroke-linecap="round" stroke-linejoin="round"/>
<path d="M267.342 364.363C269.99 363.414 272.703 362.661 275.46 362.112L275.793 363.35C275.831 363.496 275.918 363.623 276.041 363.709C276.164 363.795 276.312 363.832 276.461 363.816L287.374 362.53C290.376 355.601 295.889 345.104 295.968 344.944C295.889 342.323 295.968 340.121 295.968 337.613C289.725 339.96 278.176 344.413 272.14 347.258C272.003 347.347 271.898 347.478 271.838 347.631C271.778 347.784 271.767 347.951 271.806 348.11C271.806 348.11 271.917 348.512 272.06 349.091C269.105 349.091 260.257 348.657 258.128 350.699C257.797 351.165 257.635 351.733 257.667 352.306C257.54 354.524 258.636 371.757 260.384 376.821C261.289 379.473 263.196 379.184 264.498 376.644C266.006 372.82 266.974 368.798 267.374 364.7C267.374 364.491 267.326 364.507 267.342 364.363ZM265.515 349.975C267.453 349.814 268.057 349.847 272.219 349.718C272.966 352.579 274.507 358.463 275.301 361.469C272.498 361.908 269.732 362.558 267.024 363.414C266.181 358.98 265.676 354.487 265.515 349.975Z" fill="white"/>
<path d="M413.554 209.283C413.952 208.72 413.443 207.997 413.014 207.434C414.23 206.17 415.577 205.043 417.033 204.075C419.492 202.835 421.738 201.207 423.69 199.252C424.5 198.4 426.025 196.648 425.453 195.619C424.881 194.59 423.864 194.526 422.482 195.121C423.081 194.485 423.571 193.751 423.928 192.951C424.373 191.697 423.324 190.684 421.053 191.616C421.879 190.282 422.069 188.884 420.671 188.208C419.543 187.662 417.891 188.964 416.938 189.816C415.066 191.471 413.31 193.254 411.68 195.153C410.679 193.031 409.09 190.588 407.105 191.359C405.119 192.131 406.66 195.587 407.677 197.468L404.071 199.992C403.525 199.694 402.91 199.555 402.291 199.59C398.193 200.297 379.368 214.797 377.462 214.797C376 214.797 355.126 204.669 337.079 201.744C337.045 201.634 336.98 201.537 336.893 201.463C336.805 201.389 336.7 201.342 336.587 201.326C333.439 200.782 330.248 200.54 327.055 200.602C326.959 200.609 326.865 200.637 326.78 200.684C326.694 200.731 326.621 200.797 326.563 200.876H325.228C324.911 199.574 323.735 196.567 323.322 195.41C324.402 194.462 325.896 193.979 326.674 192.452C328.104 189.623 328.04 184.704 327.643 181.553C329.438 180.171 329.486 177.952 329.073 175.686C328.914 174.769 328.421 172.696 327.659 172.181C327.23 171.892 326.325 172.181 325.546 172.471C324.768 170.638 324.768 171.474 325.085 170.735C325.234 170.394 325.32 170.029 325.34 169.658C326.182 169.915 327.929 168.211 327.325 165.96C327.009 165.155 326.621 164.38 326.166 163.645C326.388 163.099 326.865 162.44 325.371 160.43C324.728 159.728 323.893 159.236 322.973 159.016H322.242C321.715 158.241 320.941 157.674 320.05 157.408C318.705 157.061 317.278 157.263 316.078 157.971C315.76 158.212 315.506 158.533 315.188 158.758C314.47 158.317 313.646 158.084 312.806 158.084C311.965 158.084 311.142 158.317 310.423 158.758C310.002 158.925 309.619 159.177 309.297 159.497C308.976 159.818 308.72 160.201 308.548 160.623C307.77 160.351 306.944 160.247 306.123 160.316C305.303 160.385 304.505 160.627 303.782 161.025C301.038 162.531 298.985 165.064 298.063 168.082C298.038 168.537 298.038 168.993 298.063 169.449H297.889C295.506 169.095 292.472 174.818 294.902 179.271C295.188 179.801 295.553 180.299 295.903 180.878C296.92 182.486 296.522 182.968 298.794 184.929C299.461 185.508 299.573 185.459 299.986 185.813C300.399 186.167 300.24 185.99 300.478 186.89C300.608 187.42 300.841 187.92 301.163 188.358C301.484 188.797 301.889 189.167 302.353 189.446C302.522 191.019 303.184 192.495 304.243 193.658C304.578 194.038 304.97 194.363 305.403 194.622C305.519 194.689 305.65 194.728 305.784 194.735C306.261 197.725 306.848 201.615 307.103 203.271L305.689 204.042C303.839 204.796 302.04 205.671 300.303 206.663C300.167 206.758 300.071 206.901 300.033 207.065C298.349 207.965 296.761 208.817 295.855 209.363C283.242 216.935 247.419 266.849 247.054 269.131C247.013 269.262 247.013 269.402 247.054 269.533C247.567 270.362 248.193 271.114 248.912 271.768C248.691 272.178 248.424 272.559 248.118 272.909C244.941 275.015 240.175 278.149 237.618 280.947C237.438 281.109 237.303 281.315 237.227 281.545C237.15 281.776 237.135 282.022 237.181 282.261C237.228 282.499 237.335 282.722 237.492 282.907C237.65 283.09 237.852 283.229 238.078 283.31C238.555 283.47 238.634 283.422 241.732 281.702C240.881 282.458 240.184 283.375 239.683 284.403C239.476 285.287 240.271 285.801 241.271 285.64C241.834 285.491 242.37 285.252 242.86 284.933C242.573 285.381 242.421 285.903 242.421 286.436C242.421 286.969 242.573 287.492 242.86 287.939C244.449 289.965 248.611 283.583 250.803 282.007C251.693 283.149 252.9 285.817 254.822 285.11C256.49 284.483 254.663 280.77 254.822 279.693C255.468 279.065 256.159 278.484 256.887 277.957C258.112 278.875 259.514 279.528 261.001 279.869C263.623 279.869 290.978 251.931 293.059 249.696C292.313 256.801 288.548 287.296 289.342 293.228C289.707 295.913 296.078 296.298 298.762 296.443C297.952 315.733 297.412 344.958 297.269 345.264C293.059 354.443 291.916 356.95 290.502 359.731C287.928 364.715 277.094 383.105 275.871 387.284C275.696 387.943 275.68 388.201 276.363 389.422C274.316 391.601 272.416 393.916 270.676 396.351C269.803 397.958 273.551 412.94 276.204 418.245C276.808 419.435 277.793 421.267 279.111 421.221C283.083 421.075 283.067 406.639 282.956 402.604C282.955 402.48 282.91 402.36 282.829 402.267C283.549 401.179 284.334 400.138 285.18 399.148C285.685 399.5 286.216 399.811 286.768 400.08C287.309 400.321 287.912 399.903 288.357 399.534C293.647 395.322 322.178 359.346 328.294 342.37C331.074 334.622 334.776 323.916 335.824 316.328C336.465 311.531 336.525 306.672 335.999 301.86C335.999 301.792 336.026 301.727 336.073 301.678C336.121 301.63 336.186 301.603 336.253 301.603C336.321 301.603 336.386 301.63 336.434 301.678C336.481 301.727 336.507 301.792 336.507 301.86C337.303 306.699 337.458 311.625 336.968 316.505C335.793 327.034 327.58 348.977 323.195 357.047C326.976 356.339 334.665 354.796 338.382 353.671C350.773 349.861 362.211 338.496 363.212 325.732C363.536 319.719 363.536 313.693 363.212 307.68C363.105 299.378 362.039 291.118 360.035 283.068C363.402 281.22 366.484 279.05 367.485 277.056C369.63 272.796 363.958 248.282 362.719 241.401C369.503 242.157 381.052 243.523 386.437 239.263C392.601 234.248 405.913 220.134 413.554 209.283ZM282.098 401.72C279.239 399.968 275.235 395.804 274.632 392.541C275.283 391.705 275.966 390.933 276.601 390.065C278.754 393.39 281.439 396.329 284.544 398.762C283.672 399.699 282.855 400.686 282.098 401.72ZM408.392 197.918C408.474 197.865 408.533 197.782 408.556 197.686C408.58 197.59 408.566 197.489 408.519 197.403C407.963 196.359 406.295 192.677 407.454 192.259C408.121 192.002 408.709 192.42 409.202 192.983C409.954 193.948 410.539 195.035 410.933 196.198C410.962 196.292 411.017 196.377 411.091 196.443C411.164 196.508 411.254 196.553 411.349 196.571C411.446 196.589 411.545 196.58 411.638 196.546C411.729 196.511 411.81 196.452 411.871 196.375C413.459 194.59 417.176 190.523 419.273 189.43C420.862 188.594 421.243 190.137 417.351 193.738C416.458 194.428 415.599 195.163 414.778 195.941C414.733 196.004 414.707 196.08 414.707 196.158C414.707 196.235 414.733 196.311 414.778 196.375C414.778 196.793 415.111 197.259 415.683 196.825C417.064 195.598 418.524 194.465 420.052 193.433C420.832 192.872 421.738 192.518 422.689 192.404C422.212 193.883 417.78 197.902 417.399 198.352C417.278 198.462 417.204 198.615 417.194 198.779C417.185 198.943 417.237 199.104 417.343 199.229C417.451 199.353 417.6 199.43 417.762 199.444C417.925 199.457 418.085 199.406 418.209 199.3C419.972 198.143 423.054 195.442 424.119 195.844C425.183 196.246 422.022 199.236 421.227 199.943C416.668 203.946 417.844 201.374 412.57 206.807C410.274 204.263 407.638 202.055 404.738 200.249L408.392 197.918ZM339.367 274.806C339.097 272.587 338.763 270.192 338.35 267.701L339.033 266.784C342.211 262.653 343.164 256.078 342.862 250.918C344.562 258.457 345.912 265.868 346.945 273.23L339.367 274.806ZM315.744 219.764C311.566 216.549 304.847 211.003 300.939 207.209L307.293 203.994C313.129 209.51 318.123 215.869 322.115 222.867C328.219 234.213 332.747 246.357 335.57 258.956L312.917 226.532L315.872 220.327C315.911 220.231 315.919 220.126 315.897 220.025C315.874 219.924 315.821 219.833 315.744 219.764ZM326.483 201.535C326.579 201.712 327.675 204.075 329.343 208.206C329.343 208.383 329.041 212.402 328.898 213.816C326.87 213.003 324.958 211.922 323.211 210.601C323.56 209.203 325.133 202.853 325.244 201.422L326.483 201.535ZM320.844 218.8C320.955 218.51 321.066 218.124 321.193 217.674L322.258 218.237C322.861 218.639 322.623 217.417 323.163 220.954C323.163 221.548 323.322 222.208 323.354 222.931C322.623 221.597 321.718 220.166 320.86 218.8H320.844ZM319.954 217.449C316.953 213.142 313.536 209.146 309.755 205.521L321.718 210.778C321.257 211.887 320.59 215.279 319.97 217.449H319.954ZM332.171 226.869C330.582 222.481 329.359 217.578 328.755 216.292C328.791 215.891 328.791 215.487 328.755 215.086C328.986 215.173 329.225 215.227 329.47 215.247C329.624 215.249 329.772 215.194 329.888 215.094C330.006 214.994 330.083 214.854 330.105 214.7C330.232 214.17 330.439 211.485 330.471 210.891C335.092 222.697 338.95 234.795 342.02 247.108C333.044 227.786 334.426 233.38 332.186 226.869H332.171ZM345.308 257.557C341.686 239.987 335.316 218.076 328.072 201.84C330.733 201.842 333.389 202.057 336.015 202.483C337.365 214.7 336.237 214.282 337.143 214.765C338.048 215.247 343.497 217.465 344.307 217.803C344.228 219.041 345.372 254.438 345.324 257.557H345.308ZM327.024 173.21C327.852 175.039 328.144 177.07 327.865 179.062C327.736 179.569 327.471 180.029 327.098 180.392C326.724 180.756 326.26 181.007 325.754 181.119C325.25 181.23 324.723 181.198 324.234 181.025C323.746 180.852 323.315 180.545 322.988 180.139C322.23 178.523 321.661 176.824 321.289 175.075C321.718 174.512 326.293 173.387 327.024 173.21ZM305.164 189.285C304.585 189.018 303.99 188.782 303.385 188.578C302.979 188.409 302.617 188.148 302.326 187.816C302.035 187.483 301.823 187.088 301.707 186.659C301.59 186.231 301.572 185.782 301.654 185.345C301.736 184.909 301.914 184.497 302.178 184.141C303.179 183.289 304.084 183.338 304.91 184.608C305.434 185.588 305.419 185.668 305.657 185.765C305.726 185.795 305.8 185.811 305.874 185.81C305.948 185.809 306.022 185.792 306.09 185.76C306.157 185.728 306.218 185.682 306.266 185.625C306.315 185.567 306.351 185.5 306.372 185.427C306.607 184.421 306.644 183.378 306.483 182.357C306.292 181.248 306.261 176.329 306.292 176.168C306.757 176.416 307.277 176.532 307.801 176.506C310.677 176.393 311.249 174.898 312.393 173.676C313.711 173.805 313.981 174.448 315.474 173.676C316.173 173.274 316.815 172.776 317.381 172.197C317.837 172.387 318.278 172.612 318.699 172.873C319.651 173.336 320.725 173.478 321.763 173.279C322.8 173.079 323.748 172.548 324.466 171.763C324.641 172.101 324.799 172.439 324.942 172.792C323.482 173.251 322.108 173.951 320.876 174.866C320.606 175.203 321.003 177.036 321.098 177.47C319.768 177.64 318.479 178.059 317.301 178.708C317.063 177.872 316.539 176.313 315.713 175.879C315.464 175.802 315.199 175.802 314.95 175.879C313.52 176.104 308.389 177.663 307.77 178.515C307.23 179.11 308.771 183.707 309.247 184.463C311.074 187.324 316.428 186.488 317.428 183.145C317.676 182.023 317.676 180.859 317.428 179.737C317.889 179.737 319.271 179.238 319.43 179.19C320.526 181.682 320.844 181.826 322.115 184.511C321.94 184.656 321.654 184.897 321.416 185.058C320.288 185.813 320.05 185.685 320.113 186.006C320.132 186.07 320.173 186.125 320.228 186.16C320.284 186.196 320.35 186.209 320.415 186.199C321.082 186.103 321.734 185.919 322.353 185.652C322.724 185.512 323.03 185.237 323.211 184.881C323.656 183.868 321.193 180.058 320.224 178.917C320.415 178.917 320.86 178.595 321.193 178.419C321.638 180.219 321.94 181.634 323.656 182.341C324.152 182.53 324.68 182.617 325.21 182.595C325.739 182.572 326.258 182.442 326.738 182.212C326.992 185.042 326.944 189.639 325.61 192.147C324.927 193.449 323.243 193.947 322.162 195.024C321.845 195.33 322.051 195.764 322.162 196.23C323.926 201.197 323.958 201.181 323.862 201.824C323.395 204.493 322.742 207.125 321.908 209.701C321.511 209.524 317.047 207.129 308.31 203.689C308.04 201.872 306.594 192.179 306.133 190.395C306.165 189.768 306.086 189.623 305.164 189.205V189.285ZM316.285 182.727C315.776 184.479 313.377 185.234 311.662 184.752C309.946 184.27 309.835 183.386 309.025 181.296C308.645 180.498 308.383 179.647 308.246 178.772C308.771 178.193 314.505 177.004 315.22 176.891C316.223 178.627 316.6 180.661 316.285 182.646V182.727ZM254.123 279.243C253.519 279.837 254.329 281.782 254.456 283.47C254.456 283.615 254.456 284.242 254.361 284.29C253.487 284.58 252.677 283.245 252.185 282.442C251.692 281.638 251.2 280.545 250.421 280.834C248.833 281.59 245.147 286.541 243.702 287.055C242.971 285.64 247.149 281.606 247.292 281.381C247.353 281.277 247.385 281.158 247.385 281.039C247.384 280.918 247.351 280.799 247.289 280.698C247.227 280.594 247.138 280.511 247.032 280.455C246.926 280.4 246.807 280.376 246.688 280.384C246.402 280.384 246.212 280.641 245.767 281.043C244.414 282.379 242.865 283.496 241.176 284.354C242.708 282.576 244.347 280.896 246.084 279.323C246.171 279.233 246.231 279.122 246.26 279.001C246.26 279.001 245.926 278.149 245.275 278.487C244.353 279.001 239.873 281.622 238.46 282.297C238.269 282.168 238.38 281.975 238.46 281.782C240.699 279.001 245.624 275.626 248.642 273.488C248.997 273.118 249.291 272.696 249.516 272.234C251.606 274.202 253.836 276.013 256.188 277.651C255.464 278.132 254.774 278.664 254.123 279.243ZM291.089 293.855C290.74 293.63 290.486 293.421 290.438 293.132C289.564 286.573 294.426 249.407 294.346 247.944C294.346 247.858 294.329 247.773 294.296 247.694C294.264 247.615 294.215 247.544 294.154 247.484C294.093 247.424 294.022 247.377 293.942 247.345C293.864 247.314 293.78 247.299 293.695 247.301C292.885 247.301 294.314 247.301 274.076 266.913C272.741 268.183 262.542 278.053 260.843 278.712C258.507 278.535 249.722 271.446 248.293 269.212C251.057 263.553 284.576 216.999 296.173 209.878C297.063 209.331 298.588 208.479 300.256 207.579C300.833 208.13 301.454 208.629 302.114 209.074C305.8 212.611 310.931 217.015 314.823 220.327L311.789 226.419C311.743 226.5 311.719 226.591 311.719 226.685C311.719 226.778 311.743 226.869 311.789 226.95C336.428 262.717 336.063 262.315 336.222 262.315C337.801 270.581 338.783 278.951 339.16 287.361C339.16 289.627 339.16 289.434 339.256 289.273C339.351 289.113 339.256 289.386 339.256 289.386C335.411 293.63 297.364 297.584 291.089 293.855ZM378.907 240.598C371.711 241.61 363.577 240.099 362.004 240.035C361.131 235.75 359.389 231.694 356.889 228.123C356.851 228.071 356.795 228.036 356.732 228.024C356.669 228.012 356.605 228.024 356.55 228.059C356.496 228.093 356.456 228.147 356.439 228.21C356.423 228.273 356.43 228.339 356.46 228.396C357.382 230.293 360.464 238.476 361.226 240.469C360.988 241.241 368.406 272.282 366.31 276.462C364.435 280.239 353.521 284.997 349.582 286.364C348.803 277.414 347.53 268.516 345.769 259.711C346.309 255.081 345.61 227.561 345.404 217.385C345.397 217.267 345.359 217.153 345.291 217.056C345.224 216.959 345.131 216.884 345.022 216.838L337.89 213.8C337.858 209.98 337.618 206.164 337.175 202.371C354.983 205.489 375.73 215.794 377.462 215.81C379.971 215.81 398.622 201.342 402.482 200.763C404.198 200.49 411.569 207 412.427 208.801C404.897 219.443 391.664 233.428 385.532 238.267C383.557 239.603 381.276 240.406 378.907 240.598Z" fill="white"/>
<path d="M649.741 268.492C650.614 268.492 651.452 268.842 652.07 269.466C652.687 270.089 653.034 270.935 653.034 271.817V298.411C653.034 299.293 652.687 300.139 652.07 300.762C651.452 301.385 650.614 301.736 649.741 301.736H601.435C600.561 301.736 599.723 301.385 599.106 300.762C598.488 300.139 598.141 299.293 598.141 298.411V275.141C598.141 274.259 598.488 273.414 599.106 272.79C599.723 272.167 600.561 271.817 601.435 271.817H621.196V270.708C621.196 270.121 621.428 269.557 621.839 269.141C622.251 268.726 622.81 268.492 623.392 268.492H649.741Z" stroke="#444AC4" stroke-width="1.22213" stroke-linecap="round" stroke-linejoin="round"/>
<path d="M624.09 298.415H598.141V278.469H616.805C617.096 278.469 617.375 278.586 617.581 278.793C617.787 279.001 617.903 279.283 617.903 279.577V288.442" stroke="#444AC4" stroke-width="1.22213" stroke-linecap="round" stroke-linejoin="round"/>
<path d="M639.86 288.442V279.577C639.86 279.283 639.975 279.001 640.181 278.793C640.387 278.586 640.667 278.469 640.958 278.469H653.034V298.415H633.673" stroke="#444AC4" stroke-width="1.22213" stroke-linecap="round" stroke-linejoin="round"/>
<path d="M609.121 271.817H601.436V270.708C601.436 270.121 601.667 269.557 602.079 269.141C602.491 268.726 603.049 268.492 603.632 268.492H606.925C607.508 268.492 608.066 268.726 608.478 269.141C608.89 269.557 609.121 270.121 609.121 270.708V271.817Z" stroke="#444AC4" stroke-width="1.22213" stroke-linecap="round" stroke-linejoin="round"/>
<path d="M606.923 266.277H603.629V268.494H606.923V266.277Z" stroke="#444AC4" stroke-width="1.22213" stroke-linecap="round" stroke-linejoin="round"/>
<path d="M617.902 275.143C617.902 275.289 617.874 275.433 617.819 275.567C617.764 275.702 617.683 275.824 617.581 275.927C617.479 276.03 617.358 276.111 617.225 276.167C617.092 276.223 616.949 276.251 616.805 276.251H614.609C614.318 276.251 614.038 276.135 613.833 275.927C613.627 275.719 613.511 275.437 613.511 275.143C613.511 274.849 613.627 274.568 613.833 274.36C614.038 274.152 614.318 274.035 614.609 274.035H616.805C617.096 274.035 617.375 274.152 617.581 274.36C617.787 274.568 617.902 274.849 617.902 275.143Z" stroke="#444AC4" stroke-width="1.22213" stroke-linecap="round" stroke-linejoin="round"/>
<path d="M646.449 270.711H640.959C640.353 270.711 639.862 271.207 639.862 271.819V275.143C639.862 275.755 640.353 276.252 640.959 276.252H646.449C647.055 276.252 647.547 275.755 647.547 275.143V271.819C647.547 271.207 647.055 270.711 646.449 270.711Z" stroke="#444AC4" stroke-width="1.22213" stroke-linecap="round" stroke-linejoin="round"/>
<path d="M635.468 270.711H632.174C631.568 270.711 631.076 271.207 631.076 271.819V272.927C631.076 273.539 631.568 274.035 632.174 274.035H635.468C636.074 274.035 636.566 273.539 636.566 272.927V271.819C636.566 271.207 636.074 270.711 635.468 270.711Z" stroke="#444AC4" stroke-width="1.22213" stroke-linecap="round" stroke-linejoin="round"/>
<path d="M613.512 286.53V284.007C613.512 283.713 613.396 283.431 613.191 283.223C612.985 283.015 612.705 282.898 612.414 282.898C612.123 282.898 611.844 283.015 611.638 283.223C611.432 283.431 611.316 283.713 611.316 284.007V286.53C610.898 286.774 610.571 287.151 610.386 287.601C610.201 288.052 610.168 288.552 610.293 289.023C610.418 289.494 610.694 289.911 611.078 290.208C611.461 290.505 611.931 290.666 612.414 290.666C612.898 290.666 613.367 290.505 613.751 290.208C614.134 289.911 614.41 289.494 614.535 289.023C614.66 288.552 614.628 288.052 614.443 287.601C614.258 287.151 613.931 286.774 613.512 286.53Z" stroke="#444AC4" stroke-width="1.22213" stroke-linecap="round" stroke-linejoin="round"/>
<path d="M609.121 264.615C609.121 265.056 608.948 265.479 608.639 265.791C608.33 266.102 607.911 266.277 607.474 266.277H603.083C602.646 266.277 602.227 266.102 601.918 265.791C601.61 265.479 601.436 265.056 601.436 264.615C601.436 264.174 601.61 263.752 601.918 263.44C602.227 263.128 602.646 262.953 603.083 262.953H607.474C607.911 262.953 608.33 263.128 608.639 263.44C608.948 263.752 609.121 264.174 609.121 264.615Z" stroke="#444AC4" stroke-width="1.22213" stroke-linecap="round" stroke-linejoin="round"/>
<path d="M621.197 271.817H612.414V270.708C612.414 270.121 612.646 269.557 613.057 269.141C613.469 268.726 614.028 268.492 614.61 268.492H619.002C619.584 268.492 620.142 268.726 620.554 269.141C620.966 269.557 621.197 270.121 621.197 270.708V271.817Z" stroke="#444AC4" stroke-width="1.22213" stroke-linecap="round" stroke-linejoin="round"/>
<path d="M628.883 297.304C633.734 297.304 637.666 293.335 637.666 288.439C637.666 283.543 633.734 279.574 628.883 279.574C624.033 279.574 620.1 283.543 620.1 288.439C620.1 293.335 624.033 297.304 628.883 297.304Z" stroke="#444AC4" stroke-width="1.22213" stroke-linecap="round" stroke-linejoin="round"/>
<path d="M628.881 299.522C634.944 299.522 639.859 294.561 639.859 288.441C639.859 282.321 634.944 277.359 628.881 277.359C622.817 277.359 617.902 282.321 617.902 288.441C617.902 294.561 622.817 299.522 628.881 299.522Z" stroke="#444AC4" stroke-width="1.22213" stroke-linecap="round" stroke-linejoin="round"/>
<path d="M628.881 295.086C632.519 295.086 635.468 292.11 635.468 288.438C635.468 284.766 632.519 281.789 628.881 281.789C625.243 281.789 622.293 284.766 622.293 288.438C622.293 292.11 625.243 295.086 628.881 295.086Z" stroke="#444AC4" stroke-width="1.22213" stroke-linecap="round" stroke-linejoin="round"/>
<path d="M628.88 292.873C631.306 292.873 633.272 290.888 633.272 288.44C633.272 285.992 631.306 284.008 628.88 284.008C626.455 284.008 624.489 285.992 624.489 288.44C624.489 290.888 626.455 292.873 628.88 292.873Z" stroke="#444AC4" stroke-width="1.22213" stroke-linecap="round" stroke-linejoin="round"/>
<path d="M628.883 290.655C630.096 290.655 631.079 289.663 631.079 288.439C631.079 287.215 630.096 286.223 628.883 286.223C627.67 286.223 626.687 287.215 626.687 288.439C626.687 289.663 627.67 290.655 628.883 290.655Z" stroke="#444AC4" stroke-width="1.22213" stroke-linecap="round" stroke-linejoin="round"/>
<path d="M588.078 113.149L591.559 120.11C591.866 120.72 592.043 121.378 592.079 122.048C592.116 122.717 592.011 123.384 591.771 124.01L587.659 134.813C587.453 135.355 587.486 135.956 587.75 136.484C588.014 137.012 588.488 137.424 589.068 137.629C589.648 137.834 590.286 137.814 590.842 137.576C591.397 137.338 591.825 136.899 592.032 136.357L596.143 125.554C596.59 124.392 596.785 123.153 596.717 121.91C596.65 120.667 596.321 119.444 595.75 118.312L593.361 113.534" fill="#444AC4"/>
<path d="M588.078 113.149L591.559 120.11C591.866 120.72 592.043 121.378 592.079 122.048C592.116 122.717 592.011 123.384 591.771 124.01L587.659 134.813C587.453 135.355 587.486 135.956 587.75 136.484C588.014 137.012 588.488 137.424 589.068 137.629C589.648 137.834 590.286 137.814 590.842 137.576C591.397 137.338 591.825 136.899 592.032 136.357L596.143 125.554C596.59 124.392 596.785 123.153 596.717 121.91C596.65 120.667 596.321 119.444 595.75 118.312L593.361 113.534" stroke="white" stroke-width="1.22213" stroke-linecap="round" stroke-linejoin="round"/>
<path d="M566.893 105.672L559.567 108.815C558.924 109.089 558.347 109.482 557.87 109.97C557.394 110.459 557.026 111.033 556.789 111.66L552.678 122.463C552.472 123.005 552.044 123.443 551.488 123.682C550.932 123.92 550.294 123.939 549.714 123.735C549.134 123.53 548.66 123.118 548.396 122.59C548.132 122.062 548.099 121.461 548.306 120.919L552.417 110.116C552.856 108.952 553.538 107.885 554.423 106.978C555.309 106.071 556.38 105.343 557.575 104.834L562.602 102.675" fill="#444AC4"/>
<path d="M566.893 105.672L559.567 108.815C558.924 109.089 558.347 109.482 557.87 109.97C557.394 110.459 557.026 111.033 556.789 111.66L552.678 122.463C552.472 123.005 552.044 123.443 551.488 123.682C550.932 123.92 550.294 123.939 549.714 123.735C549.134 123.53 548.66 123.118 548.396 122.59C548.132 122.062 548.099 121.461 548.306 120.919L552.417 110.116C552.856 108.952 553.538 107.885 554.423 106.978C555.309 106.071 556.38 105.343 557.575 104.834L562.602 102.675" stroke="white" stroke-width="1.22213" stroke-linecap="round" stroke-linejoin="round"/>
<path d="M588.765 114.522L588.316 115.703C587.833 116.972 586.83 117.999 585.529 118.558C584.227 119.116 582.733 119.161 581.375 118.681L568.293 114.062C566.935 113.583 565.825 112.619 565.207 111.382C564.589 110.146 564.513 108.739 564.996 107.469L565.445 106.289" fill="#444AC4"/>
<path d="M588.765 114.522L588.316 115.703C587.833 116.972 586.83 117.999 585.529 118.558C584.227 119.116 582.733 119.161 581.375 118.681L568.293 114.062C566.935 113.583 565.825 112.619 565.207 111.382C564.589 110.146 564.513 108.739 564.996 107.469L565.445 106.289" stroke="white" stroke-width="1.22213" stroke-linecap="round" stroke-linejoin="round"/>
<path d="M580.326 127.348C579.727 128.923 578.641 130.286 577.207 131.265C575.773 132.245 574.054 132.796 572.268 132.849C570.482 132.903 568.709 132.456 567.174 131.565C565.638 130.675 564.409 129.381 563.641 127.846C562.873 126.312 562.602 124.607 562.861 122.946C563.12 121.285 563.898 119.744 565.096 118.516C566.295 117.288 567.86 116.43 569.594 116.05C571.328 115.669 573.152 115.784 574.837 116.379C577.096 117.176 578.944 118.78 579.973 120.837C581.002 122.894 581.129 125.236 580.326 127.348Z" fill="#444AC4" stroke="white" stroke-width="1.22213" stroke-linecap="round" stroke-linejoin="round"/>
<path d="M576.063 125.841C575.764 126.628 575.221 127.31 574.504 127.799C573.787 128.289 572.927 128.564 572.034 128.591C571.141 128.617 570.255 128.394 569.487 127.948C568.719 127.503 568.105 126.856 567.721 126.089C567.337 125.322 567.202 124.469 567.331 123.639C567.461 122.808 567.85 122.038 568.449 121.424C569.048 120.81 569.831 120.381 570.698 120.191C571.565 120.001 572.477 120.058 573.319 120.355C574.449 120.754 575.373 121.556 575.887 122.585C576.402 123.613 576.465 124.785 576.063 125.841Z" fill="#444AC4" stroke="white" stroke-width="1.22213" stroke-linecap="round" stroke-linejoin="round"/>
<path d="M611.36 96.4297L609.545 101.198L611.36 96.4297Z" fill="#444AC4"/>
<path d="M611.36 96.4297L609.545 101.198" stroke="white" stroke-width="1.22213" stroke-linecap="round" stroke-linejoin="round"/>
<path d="M621.122 99.3332C621.18 99.417 621.218 99.5122 621.231 99.6111C621.244 99.7102 621.232 99.8102 621.197 99.9033C621.162 99.9965 621.103 100.08 621.027 100.147C620.95 100.215 620.858 100.264 620.757 100.291C619.115 100.782 617.342 100.777 615.683 100.275C613.83 99.4843 612.305 98.1285 611.36 96.4303C613.22 95.7227 615.294 95.6371 617.239 96.1877C618.841 96.8373 620.198 97.9367 621.122 99.3332Z" fill="#444AC4" stroke="white" stroke-width="1.22213" stroke-linecap="round" stroke-linejoin="round"/>
<path d="M601.959 92.5653C601.858 92.5928 601.766 92.6423 601.69 92.7097C601.614 92.7772 601.556 92.8607 601.52 92.9538C601.485 93.0468 601.473 93.1467 601.486 93.2456C601.499 93.3446 601.536 93.4397 601.594 93.5235C602.518 94.92 603.875 96.0195 605.477 96.6691C607.422 97.2196 609.496 97.1341 611.356 96.4264C610.412 94.7295 608.889 93.3743 607.037 92.5834C605.377 92.0804 603.603 92.0741 601.959 92.5653Z" fill="#444AC4" stroke="white" stroke-width="1.22213" stroke-linecap="round" stroke-linejoin="round"/>
<path d="M611.166 105.632L605.336 103.574L605.595 102.893C605.87 102.17 606.441 101.586 607.182 101.268C607.923 100.949 608.774 100.924 609.547 101.197C610.32 101.47 610.952 102.019 611.304 102.723C611.657 103.427 611.7 104.228 611.425 104.951L611.166 105.632Z" fill="#444AC4" stroke="white" stroke-width="1.22213" stroke-linecap="round" stroke-linejoin="round"/>
<path d="M560.349 78.4219L558.534 83.1903L560.349 78.4219Z" fill="#444AC4"/>
<path d="M560.349 78.4219L558.534 83.1903" stroke="white" stroke-width="1.22213" stroke-linecap="round" stroke-linejoin="round"/>
<path d="M550.949 74.5578C550.848 74.5852 550.756 74.6344 550.679 74.7019C550.603 74.7692 550.545 74.8528 550.509 74.946C550.474 75.0391 550.462 75.1391 550.475 75.2381C550.488 75.3371 550.526 75.4323 550.585 75.5161C551.508 76.9126 552.865 78.0121 554.467 78.6616C556.413 79.2122 558.486 79.1268 560.348 78.4195C559.402 76.7212 557.877 75.3652 556.023 74.5744C554.364 74.0727 552.591 74.0669 550.949 74.5578Z" fill="#444AC4" stroke="white" stroke-width="1.22213" stroke-linecap="round" stroke-linejoin="round"/>
<path d="M570.109 81.321C570.168 81.4048 570.206 81.5 570.219 81.599C570.232 81.6979 570.22 81.798 570.185 81.8911C570.149 81.9842 570.091 82.0678 570.015 82.1352C569.938 82.2026 569.846 82.2519 569.745 82.2793C568.104 82.7704 566.331 82.7647 564.673 82.2632C562.819 81.4726 561.294 80.1167 560.349 78.4186C562.21 77.711 564.283 77.6254 566.228 78.176C567.83 78.8256 569.186 79.9248 570.109 81.321Z" fill="#444AC4" stroke="white" stroke-width="1.22213" stroke-linecap="round" stroke-linejoin="round"/>
<path d="M554.323 85.5656L560.155 87.6249L560.415 86.9437C560.669 86.2253 560.612 85.4364 560.257 84.7457C559.902 84.0551 559.276 83.5177 558.513 83.2486C557.751 82.9795 556.913 83 556.179 83.3059C555.444 83.6117 554.871 84.1785 554.583 84.8849L554.323 85.5656Z" fill="#444AC4" stroke="white" stroke-width="1.22213" stroke-linecap="round" stroke-linejoin="round"/>
<path d="M614.658 113.824C614.352 114.63 613.879 115.367 613.267 115.995C612.654 116.623 611.914 117.128 611.089 117.483C610.263 117.838 609.369 118.034 608.456 118.062C607.543 118.089 606.629 117.947 605.768 117.643L596.708 114.445C592.56 112.978 588.058 112.734 583.81 113.747C581.236 114.353 578.513 114.203 576.002 113.316C573.491 112.43 571.312 110.849 569.755 108.785C567.188 105.371 563.591 102.756 559.443 101.288L550.382 98.0893C548.669 97.4572 547.275 96.2205 546.502 94.6463C545.729 93.072 545.64 91.2867 546.253 89.676C546.866 88.0653 548.132 86.7586 549.778 86.0384C551.424 85.318 553.317 85.2419 555.049 85.8263L564.11 89.0253C568.258 90.4927 572.759 90.7377 577.008 89.7273C579.581 89.1205 582.305 89.2703 584.816 90.1568C587.327 91.0434 589.506 92.6246 591.062 94.6894C593.63 98.1025 597.227 100.717 601.374 102.185L610.434 105.383C612.172 105.998 613.593 107.232 614.385 108.815C615.177 110.397 615.275 112.199 614.658 113.824Z" fill="#444AC4" stroke="white" stroke-width="1.22213" stroke-linecap="round" stroke-linejoin="round"/>
<path d="M219.028 238.765H223.02C223.43 238.765 223.823 238.406 224.112 237.768C224.402 237.13 224.565 236.265 224.565 235.363V169.262C224.564 168.359 224.402 167.494 224.112 166.856C223.822 166.218 223.43 165.86 223.02 165.859H205.444" stroke="white" stroke-width="0.611063" stroke-linecap="round" stroke-linejoin="round"/>
<path d="M194.737 165.859H177.163C176.752 165.86 176.359 166.218 176.069 166.856C175.779 167.494 175.616 168.36 175.616 169.262V235.363C175.616 235.809 175.656 236.252 175.733 236.665C175.811 237.077 175.925 237.452 176.069 237.768C176.212 238.084 176.383 238.335 176.571 238.506C176.758 238.677 176.96 238.765 177.163 238.765H181.164" stroke="white" stroke-width="0.611063" stroke-linecap="round" stroke-linejoin="round"/>
<path d="M208.902 254.926C209.046 255.535 209.414 256.058 209.924 256.382C210.435 256.705 211.046 256.801 211.623 256.648C212.201 256.496 212.697 256.109 213.004 255.57C213.31 255.032 213.401 254.388 213.257 253.779L210.095 240.457H205.469L208.902 254.926Z" fill="white" stroke="white" stroke-width="0.611063" stroke-linecap="round" stroke-linejoin="round"/>
<path d="M206.624 245.336H193.514L192.358 250.214H207.781L206.624 245.336Z" stroke="white" stroke-width="0.611063" stroke-linecap="round" stroke-linejoin="round"/>
<path d="M191.245 254.926C191.1 255.535 190.733 256.058 190.222 256.382C189.712 256.705 189.101 256.801 188.523 256.648C187.946 256.496 187.449 256.109 187.143 255.57C186.836 255.032 186.745 254.388 186.889 253.779L190.049 240.457H194.675L191.245 254.926Z" fill="white" stroke="white" stroke-width="0.611063" stroke-linecap="round" stroke-linejoin="round"/>
<path d="M200.091 163.439V156.02" stroke="white" stroke-width="0.611063" stroke-linecap="round" stroke-linejoin="round"/>
<path d="M219.168 238.018C219.168 238.664 218.924 239.285 218.491 239.742C218.057 240.2 217.469 240.457 216.856 240.458H183.325C182.718 240.447 182.139 240.186 181.713 239.729C181.287 239.273 181.049 238.658 181.049 238.018C181.049 237.378 181.287 236.763 181.713 236.307C182.139 235.85 182.718 235.589 183.325 235.578H216.856C217.469 235.578 218.057 235.836 218.491 236.293C218.924 236.75 219.168 237.371 219.168 238.018Z" fill="white" stroke="white" stroke-width="0.611063" stroke-linecap="round" stroke-linejoin="round"/>
<path d="M205.445 165.857C205.445 166.499 205.284 167.114 204.997 167.568C204.71 168.021 204.32 168.276 203.915 168.276H196.267C195.861 168.276 195.472 168.021 195.185 167.568C194.898 167.114 194.737 166.499 194.737 165.857C194.737 165.215 194.898 164.6 195.185 164.146C195.472 163.692 195.861 163.438 196.267 163.438H203.915C204.32 163.438 204.71 163.692 204.997 164.146C205.284 164.6 205.445 165.215 205.445 165.857Z" fill="white" stroke="white" stroke-width="0.611063" stroke-linecap="round" stroke-linejoin="round"/>
<path d="M505.585 325.576C504.844 328.933 503.064 331.977 500.494 334.284C497.923 336.591 494.689 338.045 491.244 338.444C487.799 338.842 484.315 338.165 481.277 336.507C478.239 334.85 475.799 332.293 474.297 329.196C472.796 326.098 472.308 322.613 472.901 319.227C473.495 315.841 475.14 312.724 477.608 310.309C480.076 307.894 483.243 306.303 486.667 305.757C490.092 305.212 493.603 305.739 496.71 307.265M501.433 301.447C496.985 298.874 491.821 297.784 486.701 298.335C481.581 298.886 476.774 301.05 472.987 304.509C469.201 307.968 466.634 312.54 465.664 317.552C464.694 322.563 465.373 327.751 467.6 332.352C469.827 336.954 473.485 340.726 478.036 343.114C482.587 345.503 487.792 346.382 492.885 345.622C497.978 344.862 502.69 342.504 506.33 338.893C509.97 335.282 512.344 330.61 513.105 325.563L501.433 301.447ZM513.105 318.536C512.398 313.784 510.254 309.357 506.956 305.838L513.105 318.536ZM502.239 311.651C503.886 313.657 505.033 316.02 505.585 318.548L502.239 311.651Z" stroke="#444AC4" stroke-width="1.22213" stroke-linecap="round" stroke-linejoin="round"/>
<path d="M472.639 322.043H485.671" stroke="#444AC4" stroke-width="1.22213" stroke-linecap="round" stroke-linejoin="round"/>
<path d="M492.851 325.562L501.079 333.714" stroke="#444AC4" stroke-width="1.22213" stroke-linecap="round" stroke-linejoin="round"/>
<path d="M477.517 310.371L486.732 319.501" stroke="#444AC4" stroke-width="1.22213" stroke-linecap="round" stroke-linejoin="round"/>
<path d="M489.299 325.562V338.551" stroke="#444AC4" stroke-width="1.22213" stroke-linecap="round" stroke-linejoin="round"/>
<path d="M489.299 305.535V316.348" stroke="#444AC4" stroke-width="1.22213" stroke-linecap="round" stroke-linejoin="round"/>
<path d="M486.75 324.566L477.517 333.715" stroke="#444AC4" stroke-width="1.22213" stroke-linecap="round" stroke-linejoin="round"/>
<path d="M573.115 322.043H587.303" stroke="#444AC4" stroke-width="1.22213" stroke-linecap="round" stroke-linejoin="round"/>
<path d="M553.982 322.043H568.284" stroke="#444AC4" stroke-width="1.22213" stroke-linecap="round" stroke-linejoin="round"/>
<path d="M572.423 323.695L582.48 333.658" stroke="#444AC4" stroke-width="1.22213" stroke-linecap="round" stroke-linejoin="round"/>
<path d="M558.917 310.312L567.219 318.538" stroke="#444AC4" stroke-width="1.22213" stroke-linecap="round" stroke-linejoin="round"/>
<path d="M570.75 324.383V338.548" stroke="#444AC4" stroke-width="1.22213" stroke-linecap="round" stroke-linejoin="round"/>
<path d="M569.081 323.695L558.917 333.766" stroke="#444AC4" stroke-width="1.22213" stroke-linecap="round" stroke-linejoin="round"/>
<path d="M582.478 310.426L572.646 320.165" stroke="#444AC4" stroke-width="1.22213" stroke-linecap="round" stroke-linejoin="round"/>
<path d="M555.612 280.398L551.575 267.143L545.444 265.624C544.856 265.456 544.356 265.069 544.051 264.543C543.745 264.018 543.657 263.395 543.805 262.807C543.954 262.218 544.326 261.71 544.845 261.388C545.364 261.066 545.989 260.956 546.588 261.082L553.992 262.916C554.381 263.012 554.739 263.205 555.033 263.477C555.326 263.748 555.545 264.089 555.668 264.468L573 321.326C573.189 321.916 573.134 322.556 572.848 323.107C572.562 323.657 572.068 324.073 571.474 324.263C571.239 324.34 570.993 324.379 570.746 324.379C570.247 324.379 569.76 324.222 569.355 323.93C568.951 323.639 568.651 323.228 568.497 322.757L557.985 288.211" stroke="#444AC4" stroke-width="1.22213" stroke-linecap="round" stroke-linejoin="round"/>
<path d="M509.393 280.462L505.996 272.609" stroke="#444AC4" stroke-width="1.22213" stroke-linecap="round" stroke-linejoin="round"/>
<path d="M499.482 272.607H517.994C518.73 272.607 519.436 272.317 519.957 271.801C520.478 271.285 520.771 270.585 520.771 269.855C520.771 269.126 520.478 268.426 519.957 267.91C519.436 267.394 518.73 267.104 517.994 267.104C514.291 267.104 503.765 266.421 499.482 263.435C492.462 258.545 486.522 272.607 499.482 272.607Z" fill="#444AC4" stroke="#444AC4" stroke-width="1.22213" stroke-linecap="round" stroke-linejoin="round"/>
<path d="M524.318 312.842L522.317 307.358L516.543 291.386H516.531L515.108 287.422H549.298L526.824 313.272M531.641 318.498L559.73 286.206C560.167 285.695 560.449 285.071 560.542 284.407C560.635 283.743 560.536 283.066 560.255 282.456C559.976 281.843 559.524 281.323 558.954 280.958C558.383 280.593 557.719 280.399 557.04 280.398H510.056C509.488 280.401 508.93 280.538 508.427 280.799C507.923 281.06 507.491 281.436 507.165 281.897C506.839 282.358 506.63 282.889 506.555 283.447C506.479 284.005 506.54 284.572 506.732 285.101L509.203 291.905L486.454 319.835C486.038 320.352 485.776 320.974 485.7 321.632C485.624 322.289 485.736 322.954 486.024 323.551C486.312 324.148 486.763 324.653 487.327 325.007C487.891 325.362 488.544 325.552 489.211 325.556H519.36L531.641 318.498ZM517.24 318.541H496.626L512.002 299.643L512.702 301.616L518.093 316.458L517.24 318.541Z" stroke="#444AC4" stroke-width="1.22213" stroke-linecap="round" stroke-linejoin="round"/>
<path d="M542.369 295.401L537.499 291.59C537.029 291.222 536.435 291.045 535.837 291.094C535.24 291.144 534.684 291.416 534.282 291.856L523.636 303.532L522.334 307.363" stroke="#444AC4" stroke-width="1.22213" stroke-linecap="round" stroke-linejoin="round"/>
<path d="M531.852 320.23C531.852 321.681 531.418 323.1 530.605 324.307C529.791 325.514 528.635 326.454 527.282 327.01C525.929 327.566 524.44 327.711 523.003 327.428C521.566 327.145 520.247 326.447 519.211 325.421C518.175 324.395 517.47 323.087 517.184 321.664C516.898 320.241 517.044 318.765 517.605 317.424C518.165 316.084 519.114 314.938 520.332 314.131C521.55 313.325 522.982 312.895 524.447 312.895C526.41 312.895 528.294 313.667 529.682 315.043C531.071 316.419 531.852 318.284 531.852 320.23V320.23Z" stroke="#444AC4" stroke-width="1.22213" stroke-linecap="round" stroke-linejoin="round"/>
<path d="M524.445 320.238V334.902" stroke="#444AC4" stroke-width="1.22213" stroke-linecap="round" stroke-linejoin="round"/>
<path d="M518.89 334.902H529.998" stroke="#444AC4" stroke-width="1.22213" stroke-linecap="round" stroke-linejoin="round"/>
<path d="M568.25 305.705C572.417 305.108 576.658 306.098 580.118 308.475C583.579 310.852 586.001 314.44 586.899 318.516C587.796 322.592 587.101 326.854 584.954 330.443C582.808 334.031 579.368 336.681 575.328 337.858C571.289 339.035 566.949 338.651 563.183 336.785C559.417 334.919 556.505 331.708 555.033 327.799C553.561 323.89 553.638 319.574 555.249 315.72C556.86 311.865 559.886 308.759 563.716 307.026" stroke="#444AC4" stroke-width="1.22213" stroke-linecap="round" stroke-linejoin="round"/>
<path d="M561.583 299.892C555.873 302.194 551.275 306.583 548.741 312.15C546.206 317.718 545.929 324.038 547.966 329.803C550.004 335.567 554.2 340.335 559.687 343.119C565.174 345.903 571.531 346.491 577.442 344.76C583.354 343.03 588.368 339.113 591.447 333.822C594.525 328.53 595.433 322.268 593.981 316.332C592.53 310.396 588.83 305.24 583.649 301.931C578.467 298.623 572.2 297.414 566.144 298.557" stroke="#444AC4" stroke-width="1.22213" stroke-linecap="round" stroke-linejoin="round"/>
<path d="M600.301 232.845C600.301 233.394 600.068 233.92 599.652 234.308C599.237 234.696 598.674 234.914 598.087 234.914H584.807C584.22 234.914 583.657 234.696 583.242 234.308C582.827 233.92 582.594 233.394 582.594 232.845V227.672H600.301V232.845Z" stroke="#444AC4" stroke-width="1.22213" stroke-linecap="round" stroke-linejoin="round"/>
<path d="M580.377 227.672H602.512" stroke="#444AC4" stroke-width="1.22213" stroke-linecap="round" stroke-linejoin="round"/>
<path d="M599.189 227.67H583.695V225.601C583.696 225.326 583.812 225.064 584.02 224.87C584.227 224.676 584.508 224.567 584.802 224.566H598.083C598.376 224.566 598.657 224.675 598.865 224.869C599.072 225.063 599.189 225.326 599.189 225.601V227.67Z" stroke="#444AC4" stroke-width="1.22213" stroke-linecap="round" stroke-linejoin="round"/>
<path d="M600.301 227.672H582.594V230.776H600.301V227.672Z" stroke="#444AC4" stroke-width="1.22213" stroke-linecap="round" stroke-linejoin="round"/>
<path d="M596.979 235.945C596.979 236.494 596.745 237.02 596.33 237.408C595.915 237.796 595.352 238.014 594.765 238.014H588.125C587.834 238.014 587.546 237.96 587.278 237.856C587.009 237.752 586.766 237.6 586.56 237.408C586.355 237.216 586.192 236.988 586.08 236.737C585.969 236.486 585.912 236.217 585.912 235.945V234.91H596.976L596.979 235.945Z" stroke="#444AC4" stroke-width="1.22213" stroke-linecap="round" stroke-linejoin="round"/>
<path d="M623.539 232.844C623.539 233.393 623.305 233.919 622.89 234.307C622.475 234.695 621.912 234.913 621.325 234.913H608.044C607.457 234.913 606.894 234.695 606.479 234.307C606.064 233.919 605.831 233.393 605.831 232.844V226.637C605.831 226.362 605.947 226.099 606.155 225.905C606.363 225.711 606.644 225.602 606.938 225.602H622.432C622.725 225.602 623.007 225.711 623.214 225.905C623.422 226.099 623.539 226.362 623.539 226.637V232.844Z" stroke="#444AC4" stroke-width="1.22213" stroke-linecap="round" stroke-linejoin="round"/>
<path d="M603.622 212.152H625.756" stroke="#444AC4" stroke-width="1.22213" stroke-linecap="round" stroke-linejoin="round"/>
<path d="M623.539 220.43C623.539 220.705 623.422 220.968 623.214 221.162C623.007 221.356 622.725 221.465 622.432 221.465H606.938C606.644 221.465 606.363 221.356 606.155 221.162C605.948 220.968 605.831 220.705 605.831 220.43V216.289H623.539V220.43Z" stroke="#444AC4" stroke-width="1.22213" stroke-linecap="round" stroke-linejoin="round"/>
<path d="M605.831 216.289H623.539" stroke="#444AC4" stroke-width="1.22213" stroke-linecap="round" stroke-linejoin="round"/>
<path d="M622.432 221.465H606.938V225.603H622.432V221.465Z" stroke="#444AC4" stroke-width="1.22213" stroke-linecap="round" stroke-linejoin="round"/>
<path d="M619.115 221.465H610.261V225.603H619.115V221.465Z" stroke="#444AC4" stroke-width="1.22213" stroke-linecap="round" stroke-linejoin="round"/>
<path d="M622.431 212.151H606.938V210.082C606.937 209.946 606.966 209.812 607.021 209.686C607.077 209.56 607.159 209.446 607.261 209.35C607.364 209.254 607.486 209.178 607.62 209.126C607.755 209.074 607.899 209.047 608.044 209.047H621.325C621.47 209.047 621.614 209.074 621.748 209.126C621.883 209.178 622.005 209.254 622.107 209.35C622.21 209.446 622.292 209.56 622.347 209.686C622.403 209.812 622.431 209.946 622.431 210.082V212.151Z" stroke="#444AC4" stroke-width="1.22213" stroke-linecap="round" stroke-linejoin="round"/>
<path d="M623.539 230.775H605.831V226.637C605.831 226.362 605.947 226.099 606.155 225.905C606.363 225.711 606.644 225.602 606.938 225.602H622.432C622.725 225.602 623.007 225.711 623.214 225.905C623.422 226.099 623.539 226.362 623.539 226.637V230.775Z" stroke="#444AC4" stroke-width="1.22213" stroke-linecap="round" stroke-linejoin="round"/>
<path d="M623.539 220.432C623.539 220.706 623.422 220.969 623.214 221.163C623.007 221.357 622.725 221.466 622.432 221.466H606.938C606.644 221.466 606.363 221.357 606.155 221.163C605.948 220.969 605.831 220.706 605.831 220.432V212.152H623.539V220.432Z" stroke="#444AC4" stroke-width="1.22213" stroke-linecap="round" stroke-linejoin="round"/>
<path d="M620.219 235.945C620.219 236.494 619.985 237.02 619.57 237.408C619.155 237.796 618.592 238.014 618.005 238.014H611.365C610.778 238.014 610.215 237.796 609.8 237.408C609.385 237.02 609.151 236.494 609.151 235.945V234.91H620.216L620.219 235.945Z" stroke="#444AC4" stroke-width="1.22213" stroke-linecap="round" stroke-linejoin="round"/>
<path d="M646.78 232.845C646.78 233.394 646.546 233.92 646.131 234.308C645.716 234.696 645.154 234.914 644.567 234.914H633.502C632.915 234.914 632.352 234.696 631.937 234.308C631.522 233.92 631.289 233.394 631.289 232.845V227.672H646.78V232.845Z" stroke="#444AC4" stroke-width="1.22213" stroke-linecap="round" stroke-linejoin="round"/>
<path d="M646.78 195.599H631.286V192.495C631.286 192.359 631.315 192.225 631.371 192.099C631.426 191.974 631.508 191.86 631.61 191.764C631.713 191.668 631.835 191.592 631.969 191.54C632.104 191.488 632.248 191.461 632.393 191.461H645.674C645.819 191.461 645.963 191.487 646.097 191.539C646.231 191.591 646.353 191.668 646.456 191.764C646.559 191.86 646.64 191.974 646.696 192.099C646.752 192.225 646.78 192.359 646.78 192.495V195.599Z" stroke="#444AC4" stroke-width="1.22213" stroke-linecap="round" stroke-linejoin="round"/>
<path d="M648.994 200.773H629.073V206.981H648.994V200.773Z" stroke="#444AC4" stroke-width="1.22213" stroke-linecap="round" stroke-linejoin="round"/>
<path d="M648.994 216.289H629.073V222.496H648.994V216.289Z" stroke="#444AC4" stroke-width="1.22213" stroke-linecap="round" stroke-linejoin="round"/>
<path d="M629.073 198.703H648.994" stroke="#444AC4" stroke-width="1.22213" stroke-linecap="round" stroke-linejoin="round"/>
<path d="M642.355 210.082H635.714C635.103 210.082 634.607 210.545 634.607 211.116V213.186C634.607 213.757 635.103 214.22 635.714 214.22H642.355C642.966 214.22 643.461 213.757 643.461 213.186V211.116C643.461 210.545 642.966 210.082 642.355 210.082Z" stroke="#444AC4" stroke-width="1.22213" stroke-linecap="round" stroke-linejoin="round"/>
<path d="M646.78 195.598H631.286C630.064 195.598 629.073 196.524 629.073 197.667V225.6C629.073 226.743 630.064 227.669 631.286 227.669H646.78C648.003 227.669 648.994 226.743 648.994 225.6V197.667C648.994 196.524 648.003 195.598 646.78 195.598Z" stroke="#444AC4" stroke-width="1.22213" stroke-linecap="round" stroke-linejoin="round"/>
<path d="M644.571 235.945C644.571 236.494 644.337 237.02 643.922 237.408C643.507 237.796 642.944 238.014 642.357 238.014H635.717C635.13 238.014 634.567 237.796 634.152 237.408C633.736 237.02 633.503 236.494 633.503 235.945V234.91H644.567L644.571 235.945Z" stroke="#444AC4" stroke-width="1.22213" stroke-linecap="round" stroke-linejoin="round"/>
<path d="M103.526 359.512C104.351 361.952 105.934 364.074 108.051 365.578C110.169 367.082 112.712 367.891 115.322 367.891C117.932 367.891 120.476 367.082 122.593 365.578C124.711 364.074 126.294 361.952 127.119 359.512" fill="#444AC4"/>
<path d="M103.526 359.512C104.351 361.952 105.934 364.074 108.051 365.578C110.169 367.082 112.712 367.891 115.322 367.891C117.932 367.891 120.476 367.082 122.593 365.578C124.711 364.074 126.294 361.952 127.119 359.512" stroke="white" stroke-width="2" stroke-linecap="round" stroke-linejoin="round"/>
<path d="M109.289 359.512C109.943 360.501 110.837 361.314 111.89 361.877C112.944 362.44 114.123 362.734 115.321 362.734C116.519 362.734 117.698 362.44 118.752 361.877C119.805 361.314 120.699 360.501 121.353 359.512" fill="#444AC4"/>
<path d="M109.289 359.512C109.943 360.501 110.837 361.314 111.89 361.877C112.944 362.44 114.123 362.734 115.321 362.734C116.519 362.734 117.698 362.44 118.752 361.877C119.805 361.314 120.699 360.501 121.353 359.512" stroke="white" stroke-width="2" stroke-linecap="round" stroke-linejoin="round"/>
<path d="M75.7159 314.197L80.0666 314.977C80.4934 315.053 80.9335 314.959 81.2901 314.716C81.6467 314.473 81.8905 314.1 81.9681 313.679C82.0456 313.259 81.9504 312.825 81.7034 312.473C81.4564 312.122 81.0779 311.882 80.6511 311.805L74.365 310.68" fill="#444AC4"/>
<path d="M75.7159 314.197L80.0666 314.977C80.4934 315.053 80.9335 314.959 81.2901 314.716C81.6467 314.473 81.8905 314.1 81.9681 313.679C82.0456 313.259 81.9504 312.825 81.7034 312.473C81.4564 312.122 81.0779 311.882 80.6511 311.805L74.365 310.68" stroke="white" stroke-width="2" stroke-linecap="round" stroke-linejoin="round"/>
<path d="M131.977 349.176C132.093 349.191 132.211 349.2 132.329 349.2H134.291C134.463 349.2 134.633 349.166 134.792 349.102C134.951 349.037 135.095 348.942 135.217 348.822C135.338 348.702 135.434 348.56 135.5 348.404C135.566 348.247 135.6 348.08 135.6 347.91V345.331C135.6 344.99 135.462 344.662 135.216 344.42C134.971 344.179 134.638 344.043 134.291 344.043H132.329C131.812 344.042 131.307 344.192 130.876 344.474C130.446 344.756 130.11 345.157 129.911 345.627" fill="#444AC4"/>
<path d="M131.977 349.176C132.093 349.191 132.211 349.2 132.329 349.2H134.291C134.463 349.2 134.633 349.166 134.792 349.102C134.951 349.037 135.095 348.942 135.217 348.822C135.338 348.702 135.434 348.56 135.5 348.404C135.566 348.247 135.6 348.08 135.6 347.91V345.331C135.6 344.99 135.462 344.662 135.216 344.42C134.971 344.179 134.638 344.043 134.291 344.043H132.329C131.812 344.042 131.307 344.192 130.876 344.474C130.446 344.756 130.11 345.157 129.911 345.627" stroke="white" stroke-width="2" stroke-linecap="round" stroke-linejoin="round"/>
<path d="M98.9689 335.012H121.863C122.038 335.017 122.213 334.987 122.376 334.925C122.539 334.862 122.688 334.768 122.813 334.648C122.939 334.528 123.039 334.384 123.107 334.225C123.175 334.066 123.21 333.896 123.21 333.723C123.21 333.551 123.175 333.38 123.107 333.221C123.039 333.062 122.939 332.918 122.813 332.798C122.688 332.678 122.539 332.584 122.376 332.521C122.213 332.459 122.038 332.429 121.863 332.434H102.24" fill="#444AC4"/>
<path d="M98.9689 335.012H121.863C122.038 335.017 122.213 334.987 122.376 334.925C122.539 334.862 122.688 334.768 122.813 334.648C122.939 334.528 123.039 334.384 123.107 334.225C123.175 334.066 123.21 333.896 123.21 333.723C123.21 333.551 123.175 333.38 123.107 333.221C123.039 333.062 122.939 332.918 122.813 332.798C122.688 332.678 122.539 332.584 122.376 332.521C122.213 332.459 122.038 332.429 121.863 332.434H102.24" stroke="white" stroke-width="2" stroke-linecap="round" stroke-linejoin="round"/>
<path d="M122.159 366.422H145.053C145.228 366.427 145.403 366.398 145.566 366.335C145.729 366.273 145.878 366.178 146.003 366.058C146.129 365.938 146.229 365.794 146.297 365.635C146.365 365.476 146.4 365.306 146.4 365.133C146.4 364.961 146.365 364.79 146.297 364.631C146.229 364.472 146.129 364.328 146.003 364.208C145.878 364.088 145.729 363.994 145.566 363.931C145.403 363.869 145.228 363.839 145.053 363.844H125.43" fill="#444AC4"/>
<path d="M135.759 368.981H158.653C158.828 368.986 159.002 368.956 159.166 368.894C159.329 368.831 159.478 368.737 159.603 368.617C159.729 368.497 159.829 368.353 159.897 368.194C159.965 368.035 160 367.864 160 367.692C160 367.519 159.965 367.349 159.897 367.19C159.829 367.031 159.729 366.887 159.603 366.767C159.478 366.647 159.329 366.552 159.166 366.49C159.002 366.427 158.828 366.398 158.653 366.403H139.029" fill="#444AC4"/>
<path d="M48.1588 367.887H71.0534C71.2284 367.892 71.4026 367.862 71.5658 367.8C71.7289 367.737 71.8777 367.643 72.0033 367.523C72.1289 367.403 72.2287 367.259 72.2969 367.1C72.365 366.941 72.4001 366.771 72.4001 366.598C72.4001 366.426 72.365 366.255 72.2969 366.096C72.2287 365.937 72.1289 365.793 72.0033 365.673C71.8777 365.553 71.7289 365.459 71.5658 365.396C71.4026 365.334 71.2284 365.304 71.0534 365.309H51.4296" fill="#444AC4"/>
<path d="M66.261 354.352L66.7073 355.231C67.3592 356.516 68.3614 357.597 69.6015 358.352C70.8416 359.107 72.2707 359.507 73.7286 359.507H131.02C131.457 359.507 131.89 359.415 132.287 359.236C132.685 359.057 133.04 358.797 133.327 358.472C133.614 358.147 133.827 357.765 133.951 357.352C134.076 356.939 134.109 356.504 134.049 356.077C133.209 350.234 130.256 344.885 125.734 341.015C121.212 337.145 115.424 335.014 109.434 335.014H85.2456C84.7902 335.013 84.3482 335.166 83.9944 335.449C83.6405 335.731 83.3964 336.125 83.3034 336.565C83.2103 337.004 83.2739 337.461 83.4834 337.86C83.693 338.258 84.0356 338.573 84.4535 338.752L89.2326 340.812C90.8135 341.493 92.1081 342.69 92.899 344.202C93.6898 345.713 93.9286 347.447 93.5752 349.111C93.2219 350.776 92.2979 352.27 90.9586 353.342C89.6193 354.415 87.9462 355 86.2206 355H77.9822C76.2953 355 74.6534 354.465 73.2995 353.473C71.9457 352.481 70.9519 351.087 70.4656 349.495L64.9793 331.539" fill="#444AC4"/>
<path d="M66.261 354.352L66.7073 355.231C67.3592 356.516 68.3614 357.597 69.6015 358.352C70.8416 359.107 72.2707 359.507 73.7286 359.507H131.02C131.457 359.507 131.89 359.415 132.287 359.236C132.685 359.057 133.04 358.797 133.327 358.472C133.614 358.147 133.827 357.765 133.951 357.352C134.076 356.939 134.109 356.504 134.049 356.077C133.209 350.234 130.256 344.885 125.734 341.015C121.212 337.145 115.424 335.014 109.434 335.014H85.2456C84.7902 335.013 84.3482 335.166 83.9944 335.449C83.6405 335.731 83.3964 336.125 83.3034 336.565C83.2103 337.004 83.2739 337.461 83.4834 337.86C83.693 338.258 84.0356 338.573 84.4535 338.752L89.2326 340.812C90.8135 341.493 92.1081 342.69 92.899 344.202C93.6898 345.713 93.9286 347.447 93.5752 349.111C93.2219 350.776 92.2979 352.27 90.9586 353.342C89.6193 354.415 87.9462 355 86.2206 355H77.9822C76.2953 355 74.6534 354.465 73.2995 353.473C71.9457 352.481 70.9519 351.087 70.4656 349.495L64.9793 331.539" stroke="white" stroke-width="2" stroke-linecap="round" stroke-linejoin="round"/>
<path d="M131.02 359.511C131.02 355.642 121.863 340.172 108.779 340.172C95.6962 340.172 93.735 347.908 93.735 349.846C93.735 355.002 101.584 359.519 101.584 359.519L131.02 359.511Z" fill="#444AC4" stroke="white" stroke-width="2" stroke-linecap="round" stroke-linejoin="round"/>
<path d="M79.9983 332.435C79.9983 333.118 80.2735 333.773 80.7633 334.257C81.2532 334.74 81.9177 335.012 82.611 335.013H99.6221C99.9702 335.02 100.316 334.958 100.64 334.832C100.964 334.706 101.259 334.517 101.507 334.277C101.756 334.037 101.954 333.75 102.089 333.434C102.224 333.117 102.293 332.778 102.293 332.434C102.293 332.091 102.224 331.752 102.089 331.435C101.954 331.119 101.756 330.832 101.507 330.592C101.259 330.352 100.964 330.163 100.64 330.037C100.316 329.91 99.9702 329.849 99.6221 329.856H82.611C81.9175 329.857 81.2529 330.129 80.763 330.613C80.2731 331.096 79.998 331.752 79.9983 332.435Z" fill="#444AC4" stroke="white" stroke-width="2" stroke-linecap="round" stroke-linejoin="round"/>
<path d="M119.246 353.711C119.246 354.473 119.094 355.227 118.798 355.931C118.502 356.635 118.068 357.274 117.522 357.813C116.975 358.352 116.326 358.779 115.612 359.07C114.898 359.362 114.132 359.512 113.359 359.512C112.586 359.512 111.82 359.362 111.106 359.07C110.392 358.779 109.743 358.352 109.196 357.813C108.65 357.274 108.216 356.635 107.92 355.931C107.625 355.227 107.472 354.473 107.472 353.711C107.472 352.949 107.625 352.195 107.92 351.491C108.216 350.787 108.65 350.148 109.196 349.609C109.743 349.071 110.392 348.643 111.106 348.352C111.82 348.06 112.586 347.91 113.359 347.91C114.132 347.91 114.898 348.06 115.612 348.352C116.326 348.643 116.975 349.071 117.522 349.609C118.068 350.148 118.502 350.787 118.798 351.491C119.094 352.195 119.246 352.949 119.246 353.711Z" fill="#444AC4" stroke="white" stroke-width="2" stroke-linecap="round" stroke-linejoin="round"/>
<path d="M66.8625 315L53.8329 338.236L66.8625 315Z" fill="#444AC4"/>
<path d="M66.8625 315L53.8329 338.236" stroke="#444AC4" stroke-width="2" stroke-linecap="round" stroke-linejoin="round"/>
<path d="M60.7158 341.917L70.825 317.305L60.7158 341.917Z" fill="#444AC4"/>
<path d="M60.7158 341.917L70.825 317.305" stroke="#444AC4" stroke-width="2" stroke-linecap="round" stroke-linejoin="round"/>
<path d="M73.5487 316.72C72.8557 317.155 72.0447 317.372 71.2238 317.341C70.4029 317.31 69.611 317.033 68.9537 316.548L64.5941 313.325C64.0263 312.905 63.6255 312.304 63.4613 311.623C63.2971 310.943 63.38 310.228 63.6954 309.602C64.0109 308.976 64.539 308.478 65.188 308.196C65.8371 307.914 66.5659 307.864 67.248 308.057L72.4911 309.532C73.4445 309.803 74.2636 310.41 74.7926 311.237C75.3216 312.064 75.5237 313.054 75.3603 314.018" fill="#444AC4"/>
<path d="M73.5487 316.72C72.8557 317.155 72.0447 317.372 71.2238 317.341C70.4029 317.31 69.611 317.033 68.9537 316.548L64.5941 313.325C64.0263 312.905 63.6255 312.304 63.4613 311.623C63.2971 310.943 63.38 310.228 63.6954 309.602C64.0109 308.976 64.539 308.478 65.188 308.196C65.8371 307.914 66.5659 307.864 67.248 308.057L72.4911 309.532C73.4445 309.803 74.2636 310.41 74.7926 311.237C75.3216 312.064 75.5237 313.054 75.3603 314.018" stroke="white" stroke-width="2" stroke-linecap="round" stroke-linejoin="round"/>
<path d="M70.8301 313.512C70.63 313.891 70.5909 314.333 70.7214 314.741C70.852 315.149 71.1414 315.488 71.5262 315.686L79.0718 319.551C79.2629 319.656 79.4737 319.723 79.6915 319.747C79.9093 319.771 80.1297 319.751 80.3397 319.69C80.5497 319.628 80.745 319.525 80.9139 319.388C81.0829 319.25 81.222 319.08 81.3231 318.889C81.4242 318.697 81.4852 318.488 81.5025 318.272C81.5197 318.057 81.4929 317.84 81.4236 317.636C81.3543 317.431 81.2439 317.242 81.099 317.08C80.9541 316.918 80.7776 316.786 80.5801 316.693L73.0356 312.826C72.6508 312.629 72.2023 312.591 71.7887 312.719C71.3751 312.848 71.0303 313.133 70.8301 313.512Z" fill="#444AC4" stroke="white" stroke-width="2" stroke-linecap="round" stroke-linejoin="round"/>
<path d="M38.1001 349.074C37.1412 350.563 36.5197 352.238 36.278 353.985C36.0364 355.732 36.1804 357.51 36.7001 359.197C37.2199 360.884 38.1031 362.441 39.2895 363.761C40.4759 365.081 41.9375 366.133 43.5743 366.845C45.2112 367.557 46.9848 367.913 48.7739 367.887C50.5631 367.862 52.3255 367.456 53.9409 366.698C55.5563 365.939 56.9865 364.846 58.1338 363.493C59.2811 362.14 60.1184 360.559 60.5886 358.858" fill="#444AC4"/>
<path d="M38.1001 349.074C37.1412 350.563 36.5197 352.238 36.278 353.985C36.0364 355.732 36.1804 357.51 36.7001 359.197C37.2199 360.884 38.1031 362.441 39.2895 363.761C40.4759 365.081 41.9375 366.133 43.5743 366.845C45.2112 367.557 46.9848 367.913 48.7739 367.887C50.5631 367.862 52.3255 367.456 53.9409 366.698C55.5563 365.939 56.9865 364.846 58.1338 363.493C59.2811 362.14 60.1184 360.559 60.5886 358.858" stroke="white" stroke-width="2" stroke-linecap="round" stroke-linejoin="round"/>
<path d="M42.8771 351.344C42.2602 352.137 41.8205 353.051 41.5869 354.023C41.3534 354.996 41.3312 356.007 41.5219 356.989C41.7125 357.971 42.1117 358.902 42.6933 359.721C43.2748 360.54 44.0255 361.229 44.8962 361.742C45.7669 362.255 46.7378 362.581 47.7453 362.699C48.7528 362.816 49.7741 362.722 50.7422 362.423C51.7103 362.124 52.6033 361.627 53.3627 360.964C54.122 360.301 54.7305 359.487 55.1482 358.576" fill="#444AC4"/>
<path d="M42.8771 351.344C42.2602 352.137 41.8205 353.051 41.5869 354.023C41.3534 354.996 41.3312 356.007 41.5219 356.989C41.7125 357.971 42.1117 358.902 42.6933 359.721C43.2748 360.54 44.0255 361.229 44.8962 361.742C45.7669 362.255 46.7378 362.581 47.7453 362.699C48.7528 362.816 49.7741 362.722 50.7422 362.423C51.7103 362.124 52.6033 361.627 53.3627 360.964C54.122 360.301 54.7305 359.487 55.1482 358.576" stroke="white" stroke-width="2" stroke-linecap="round" stroke-linejoin="round"/>
<path d="M47.8734 337.436C47.9205 337.278 47.9445 337.114 47.9448 336.949C47.9448 334.813 43.8452 333.082 38.7872 333.082H38.1324V340.818H38.7872C38.9356 340.818 39.0828 340.818 39.2334 340.818" fill="#444AC4"/>
<path d="M47.8734 337.436C47.9205 337.278 47.9445 337.114 47.9448 336.949C47.9448 334.813 43.8452 333.082 38.7872 333.082H38.1324V340.818H38.7872C38.9356 340.818 39.0828 340.818 39.2334 340.818" stroke="white" stroke-width="2" stroke-linecap="round" stroke-linejoin="round"/>
<path d="M51.0096 337.68C54.4173 338.01 57.643 339.352 60.2601 341.528C62.8771 343.704 64.7621 346.611 65.6658 349.866C66.2032 351.856 66.3781 353.924 66.1823 355.974C66.107 356.765 65.7347 357.5 65.1383 358.035C64.542 358.569 63.7645 358.865 62.9583 358.865H56.6811C55.8445 358.865 55.0277 358.613 54.34 358.144C53.6522 357.674 53.1263 357.009 52.8324 356.237C52.3334 354.926 51.4404 353.797 50.2728 352.999C49.1051 352.202 47.7182 351.774 46.2975 351.774C43.537 351.774 40.8422 350.944 38.5723 349.396L36.3267 347.864C36.0354 347.665 35.7881 347.41 35.5999 347.115C35.4116 346.819 35.2862 346.489 35.2313 346.144C35.1765 345.799 35.1932 345.447 35.2807 345.108C35.3681 344.77 35.5243 344.453 35.7399 344.176C37.5068 341.894 39.8392 340.099 42.5131 338.961C45.1871 337.824 48.1128 337.383 51.0096 337.68Z" fill="#444AC4" stroke="white" stroke-width="2" stroke-linecap="round" stroke-linejoin="round"/>
<path d="M38.1326 333.078C36.6824 333.078 35.5166 334.81 35.5166 336.945C35.5166 339.081 36.6879 340.814 38.1326 340.814V333.078Z" fill="#444AC4" stroke="white" stroke-width="2" stroke-linecap="round" stroke-linejoin="round"/>
<path fill-rule="evenodd" clip-rule="evenodd" d="M415.457 122.951C412.548 123.296 409.616 123.455 406.682 123.427C406.533 123.432 406.387 123.391 406.268 123.309C406.149 123.228 406.065 123.112 406.03 122.98C405.996 122.849 406.013 122.711 406.078 122.59C406.144 122.469 406.254 122.372 406.389 122.316C410.016 120.545 418.557 118.799 422.944 116.049L433.796 109.491C433.818 109.468 433.845 109.45 433.875 109.438C433.905 109.425 433.938 109.419 433.971 109.419C434.005 109.419 434.037 109.425 434.068 109.438C434.098 109.45 434.125 109.468 434.147 109.491C434.469 109.834 433.796 109.861 430.14 114.224C427.713 116.926 425.741 119.938 424.29 123.163C422.721 126.534 421.345 129.977 420.166 133.476C420.166 134.269 418.06 134.851 418.645 130.514C418.887 128.896 419.219 127.289 419.639 125.701C416.605 127.682 413.407 129.45 410.075 130.99C409.955 131.053 409.816 131.08 409.679 131.068C409.541 131.057 409.41 131.008 409.304 130.927C409.199 130.846 409.124 130.737 409.089 130.616C409.054 130.495 409.061 130.367 409.11 130.25C410.606 127.424 412.773 124.932 415.457 122.951ZM432.012 111.236C417.68 120.359 424.085 117.054 409.782 122.211C412.519 122.205 415.24 121.831 417.855 121.1L418.177 120.862C418.82 120.412 419.961 121.311 418.703 122.052C415.892 124.05 413.41 126.401 411.333 129.033C414.572 127.535 417.605 125.697 420.371 123.559C420.473 123.451 420.615 123.379 420.771 123.356C420.927 123.333 421.086 123.359 421.222 123.432C421.358 123.504 421.462 123.618 421.514 123.752C421.567 123.887 421.566 124.034 421.511 124.167C420.906 126.161 420.418 128.183 420.049 130.223C422.361 123.144 426.456 116.645 432.012 111.236ZM434.001 98.8864C438.961 91.6201 446.047 85.7353 454.475 81.8825C465.824 77.0432 469.977 82.1999 464.829 91.4555C460.446 98.8493 454.18 105.194 446.549 109.967C447.408 112.68 447.754 115.505 447.572 118.323C446.812 120.968 432.509 125.41 430.549 125.199C430.401 125.192 430.257 125.15 430.133 125.075C430.01 125.001 429.911 124.897 429.847 124.776C429.555 124.167 430.227 123.612 430.871 123.163C434.442 120.804 438.184 118.666 442.073 116.763L441.869 112.373L440.201 113.114C440.093 113.141 439.978 113.14 439.87 113.112C439.761 113.084 439.664 113.03 439.587 112.955L430.374 104.836C430.331 104.793 430.307 104.736 430.307 104.678C430.307 104.619 430.331 104.563 430.374 104.519C430.374 104.519 430.666 103.964 431.28 102.985H426.162C425.401 104.413 420.312 113.722 418.674 114.356C418.556 114.408 418.427 114.433 418.296 114.43C418.165 114.427 418.038 114.396 417.923 114.339C417.808 114.282 417.711 114.201 417.638 114.103C417.565 114.005 417.519 113.892 417.504 113.775C417.153 111.791 421.482 98.86 424.348 98.0931C427.531 97.8285 430.74 98.0249 433.854 98.6748C433.9 98.6915 433.939 98.721 433.966 98.7591C433.992 98.7971 434.004 98.8417 434.001 98.8864ZM445.905 110.152C444.744 110.852 443.543 111.496 442.307 112.082L442.922 117.08C442.922 117.477 442.922 117.239 437.072 120.73C435.288 121.761 433.474 122.845 432.246 123.665C436.684 122.559 440.964 120.989 444.998 118.984C445.32 118.799 446.168 118.27 446.285 117.927C446.594 115.332 446.466 112.711 445.905 110.152ZM433.006 101.504C431.865 103.038 431.163 104.149 430.9 104.598L439.967 112.188C441.02 111.712 442.161 111.13 443.36 110.469C439.583 107.805 436.113 104.802 433.006 101.504ZM433.737 99.2566C430.72 98.8696 427.658 98.8696 424.641 99.2566C423.617 99.574 421.862 103.779 421.541 104.546C420.508 107.035 419.677 109.589 419.054 112.188C420.809 109.834 425.606 102.139 425.401 102.509C425.441 102.435 425.504 102.374 425.582 102.331C425.66 102.289 425.749 102.268 425.84 102.271L431.544 102.536C432.129 101.531 432.831 100.5 433.737 99.2566ZM449.854 85.5319C443.224 89.6003 437.589 94.8569 433.299 100.976C437.183 103.671 440.733 106.739 443.887 110.125C450.561 106.148 456.289 101.006 460.734 94.999L449.854 85.5319ZM444.618 92.1695C444.055 92.7026 443.614 93.3306 443.32 94.0178C443.026 94.705 442.884 95.4378 442.903 96.1745C442.922 96.9112 443.101 97.6373 443.431 98.3113C443.76 98.9853 444.233 99.5941 444.823 100.103C445.412 100.612 446.107 101.01 446.867 101.276C447.627 101.542 448.438 101.671 449.253 101.653C450.067 101.636 450.87 101.474 451.616 101.176C452.362 100.878 453.035 100.451 453.598 99.9178C454.734 98.8412 455.351 97.4005 455.312 95.9127C455.274 94.4249 454.584 93.0119 453.393 91.9844C452.202 90.9569 450.609 90.3992 448.963 90.4339C447.317 90.4686 445.755 91.0929 444.618 92.1695ZM452.779 92.5926C453.72 93.4666 454.247 94.6384 454.247 95.8585C454.247 97.0786 453.72 98.2504 452.779 99.1244C451.855 99.8986 450.64 100.325 449.381 100.317C448.122 100.309 446.914 99.8662 446.003 99.08C445.092 98.2938 444.548 97.223 444.481 96.0862C444.414 94.9494 444.829 93.8323 445.642 92.9628C446.547 92.0775 447.796 91.5442 449.128 91.4751C450.459 91.406 451.768 91.8067 452.779 92.5926ZM451.17 94.0999C451.568 94.4735 451.836 94.9448 451.94 95.4551C452.044 95.9653 451.98 96.492 451.756 96.9695C451.531 97.4471 451.156 97.8543 450.678 98.1406C450.199 98.4269 449.638 98.5796 449.064 98.5796C448.49 98.5796 447.929 98.4269 447.45 98.1406C446.972 97.8543 446.597 97.4471 446.372 96.9695C446.148 96.492 446.083 95.9653 446.188 95.4551C446.292 94.9448 446.56 94.4735 446.958 94.0999C447.231 93.844 447.558 93.6404 447.92 93.5014C448.282 93.3623 448.671 93.2907 449.064 93.2907C449.457 93.2907 449.846 93.3623 450.208 93.5014C450.57 93.6404 450.897 93.844 451.17 94.0999Z" fill="#444AC4"/>
<defs>
<linearGradient id="paint0_linear_296_41489" x1="235.886" y1="116.91" x2="235.886" y2="405.332" gradientUnits="userSpaceOnUse">
<stop stop-color="#3B28AB"/>
<stop offset="1" stop-color="#B0A3FA"/>
</linearGradient>
</defs>
</svg>
